<svg xmlns="http://www.w3.org/2000/svg" xmlns:xlink="http://www.w3.org/1999/xlink" viewBox="0 0 216.1 216"><defs><path id="a" d="M108.1 0C48.4 0 .1 48.4.1 108s48.3 108 108 108 108-48.4 108-108S167.7 0 108.1 0zm0 180c-39.8 0-72-32.2-72-72s32.2-72 72-72 72 32.2 72 72-32.3 72-72 72z"/></defs><clipPath id="b"><use xlink:href="#a" overflow="visible"/></clipPath><g clip-path="url(#b)"><path d="M108.1 108L-40 22.5C-8.6-32 45.2-63.1 108.1-63.1V108z" fill="#101010"/><linearGradient id="c" gradientUnits="userSpaceOnUse" x1="-62.963" y1="150.747" x2="108.1" y2="150.747"><stop offset="0" stop-color="#ef4434"/><stop offset=".131" stop-color="#f16f32"/><stop offset=".268" stop-color="#f38c30"/><stop offset=".408" stop-color="#f5a42b"/><stop offset=".55" stop-color="#f7b725"/><stop offset=".694" stop-color="#f9c41f"/><stop offset=".842" stop-color="#facc1a"/><stop offset="1" stop-color="#face18"/><stop offset="1" stop-color="#facd1b"/><stop offset="1" stop-color="#f9c924"/><stop offset="1" stop-color="#f8c031"/><stop offset="1" stop-color="#f7b53e"/><stop offset="1" stop-color="#f5a54b"/><stop offset="1" stop-color="#f39357"/><stop offset="1" stop-color="#f17d60"/><stop offset="1" stop-color="#ef6065"/><stop offset="1" stop-color="#ee3267"/><stop offset="1" stop-color="#ee2c67"/></linearGradient><path d="M108.1 108v171C13.6 279-63 202.5-63 108c0-31.5 7.2-58.3 22.9-85.5L108.1 108z" fill="url(#c)"/><linearGradient id="d" gradientUnits="userSpaceOnUse" x1="193.631" y1="107.982" x2="193.631" y2="279.044"><stop offset="0" stop-color="#635faa"/><stop offset="0" stop-color="#fff33b"/><stop offset="0" stop-color="#e8d565"/><stop offset="0" stop-color="#c1b184"/><stop offset="0" stop-color="#a29494"/><stop offset="0" stop-color="#8b809d"/><stop offset="0" stop-color="#7a71a3"/><stop offset="0" stop-color="#6d67a6"/><stop offset="0" stop-color="#6661a8"/><stop offset="0" stop-color="#635faa"/><stop offset=".273" stop-color="#6177ae"/><stop offset=".771" stop-color="#59a1b8"/><stop offset="1" stop-color="#56b2b9"/></linearGradient><path d="M108.1 108h171.1c0 94.5-76.6 171.1-171.1 171.1V108z" fill="url(#d)"/><linearGradient id="e" gradientUnits="userSpaceOnUse" x1="108.1" y1="22.451" x2="279.162" y2="22.451"><stop offset="0" stop-color="#785ba6"/><stop offset="0" stop-color="#785ba6"/><stop offset="0" stop-color="#785ba6"/><stop offset=".044" stop-color="#8159a1"/><stop offset=".28" stop-color="#a9508c"/><stop offset=".501" stop-color="#c7447c"/><stop offset=".702" stop-color="#db3971"/><stop offset=".875" stop-color="#e8306a"/><stop offset="1" stop-color="#ee2c67"/><stop offset="1" stop-color="#ef4f63"/><stop offset="1" stop-color="#f0675d"/><stop offset="1" stop-color="#f17855"/><stop offset="1" stop-color="#f2834c"/><stop offset="1" stop-color="#f38b45"/><stop offset="1" stop-color="#f38f40"/><stop offset="1" stop-color="#f3903f"/><stop offset="1" stop-color="#e93e3a"/></linearGradient><path d="M108.1 108V-63.1c94.5 0 171.1 76.6 171.1 171.1H108.1z" fill="url(#e)"/></g></svg>