<svg xmlns="http://www.w3.org/2000/svg" width="16" height="18" viewBox="0 0 16 18">
  <metadata><?xpacket begin="﻿" id="W5M0MpCehiHzreSzNTczkc9d"?>
<x:xmpmeta xmlns:x="adobe:ns:meta/" x:xmptk="Adobe XMP Core 5.6-c142 79.160924, 2017/07/13-01:06:39        ">
   <rdf:RDF xmlns:rdf="http://www.w3.org/1999/02/22-rdf-syntax-ns#">
      <rdf:Description rdf:about=""/>
   </rdf:RDF>
</x:xmpmeta>
                                                                                                    
                                                                                                    
                                                                                                    
                                                                                                    
                                                                                                    
                                                                                                    
                                                                                                    
                                                                                                    
                                                                                                    
                                                                                                    
                                                                                                    
                                                                                                    
                                                                                                    
                                                                                                    
                                                                                                    
                                                                                                    
                                                                                                    
                                                                                                    
                                                                                                    
                                                                                                    
                           
<?xpacket end="w"?></metadata>
<defs>
    <style>
      .cls-1 {
        fill: #fff;
        fill-rule: evenodd;
      }
    </style>
  </defs>
  <path id="Icon" class="cls-1" d="M1514.99,1265.1a0.594,0.594,0,0,0-.61.58v2.24h-1.29v-2.24a0.611,0.611,0,0,0-1.22,0v2.24h-1.31v-2.22a0.616,0.616,0,0,0-1.23,0v2.71a2.207,2.207,0,0,0,1.93,2.13v8.25a1.222,1.222,0,0,0,2.44,0v-8.25a2.2,2.2,0,0,0,1.9-2.13v-2.73A0.594,0.594,0,0,0,1514.99,1265.1Zm6.1,0.27a14.3,14.3,0,0,0-3.71,8.05,0.663,0.663,0,0,0,.67.67l1.77,0.01v4.69a1.227,1.227,0,0,0,2.45,0v-13.01A0.672,0.672,0,0,0,1521.09,1265.37Z" transform="translate(-1507.795 -1263.515)"/>
</svg>
