<svg xmlns="http://www.w3.org/2000/svg" width="14.82" height="7.84" viewBox="0 0 14.82 7.84">
  <metadata><?xpacket begin="﻿" id="W5M0MpCehiHzreSzNTczkc9d"?>
<x:xmpmeta xmlns:x="adobe:ns:meta/" x:xmptk="Adobe XMP Core 5.6-c142 79.160924, 2017/07/13-01:06:39        ">
   <rdf:RDF xmlns:rdf="http://www.w3.org/1999/02/22-rdf-syntax-ns#">
      <rdf:Description rdf:about=""/>
   </rdf:RDF>
</x:xmpmeta>
                                                                                                    
                                                                                                    
                                                                                                    
                                                                                                    
                                                                                                    
                                                                                                    
                                                                                                    
                                                                                                    
                                                                                                    
                                                                                                    
                                                                                                    
                                                                                                    
                                                                                                    
                                                                                                    
                                                                                                    
                                                                                                    
                                                                                                    
                                                                                                    
                                                                                                    
                                                                                                    
                           
<?xpacket end="w"?></metadata>
  <path fill="#0b78e3" id="Icon" class="income-icon" d="M1397.09,1273.72l-0.63-.67-3.01,3.16a0.955,0.955,0,0,1-1.39,0l-3.03-3.2-3.3,3.47a0.939,0.939,0,0,1-1.39,0,1.077,1.077,0,0,1,0-1.46l3.99-4.2a0.955,0.955,0,0,1,1.39,0l3.04,3.2,2.31-2.43-0.72-.75a0.513,0.513,0,0,1,.21-0.84l3.74-1.05a0.485,0.485,0,0,1,.58.61l-1,3.93a0.466,0.466,0,0,1-.79.23" transform="translate(-1384.06 -1268.94)"/>
</svg>
