<svg xmlns="http://www.w3.org/2000/svg" width="14.82" height="7.91" viewBox="0 0 14.82 7.91">
  <metadata><?xpacket begin="﻿" id="W5M0MpCehiHzreSzNTczkc9d"?>
<x:xmpmeta xmlns:x="adobe:ns:meta/" x:xmptk="Adobe XMP Core 5.6-c142 79.160924, 2017/07/13-01:06:39        ">
   <rdf:RDF xmlns:rdf="http://www.w3.org/1999/02/22-rdf-syntax-ns#">
      <rdf:Description rdf:about=""/>
   </rdf:RDF>
</x:xmpmeta>
                                                                                                    
                                                                                                    
                                                                                                    
                                                                                                    
                                                                                                    
                                                                                                    
                                                                                                    
                                                                                                    
                                                                                                    
                                                                                                    
                                                                                                    
                                                                                                    
                                                                                                    
                                                                                                    
                                                                                                    
                                                                                                    
                                                                                                    
                                                                                                    
                                                                                                    
                                                                                                    
                           
<?xpacket end="w"?></metadata>
  <path fill="#ff2366" id="Icon" class="outcome-icon" d="M1446.34,1269.26a1.1,1.1,0,0,0,0,1.48l3.99,4.24a0.939,0.939,0,0,0,1.39,0l3.04-3.23,2.31,2.46-0.72.76a0.513,0.513,0,0,0,.21.84l3.74,1.06a0.482,0.482,0,0,0,.58-0.61l-1-3.97a0.463,0.463,0,0,0-.79-0.23l-0.63.67-3.01-3.19a0.928,0.928,0,0,0-1.38,0l-3.04,3.23-3.3-3.51a0.97,0.97,0,0,0-.7-0.3,0.948,0.948,0,0,0-.69.3h0Z" transform="translate(-1446.06 -1268.97)"/>
</svg>
